G75*
%MOIN*%
%OFA0B0*%
%FSLAX25Y25*%
%IPPOS*%
%LPD*%
%AMOC8*
5,1,8,0,0,1.08239X$1,22.5*
%
%ADD10OC8,0.06800*%
%ADD11C,0.06800*%
%ADD12OC8,0.06000*%
%ADD13R,0.07400X0.07400*%
%ADD14C,0.07400*%
D10*
X0171000Y0030000D03*
X0181000Y0030000D03*
X0181000Y0040000D03*
X0171000Y0040000D03*
X0171000Y0050000D03*
X0181000Y0050000D03*
X0181000Y0060000D03*
X0171000Y0060000D03*
X0171000Y0070000D03*
X0181000Y0070000D03*
D11*
X0031000Y0029000D02*
X0025000Y0029000D01*
X0025000Y0039000D02*
X0031000Y0039000D01*
X0031000Y0049000D02*
X0025000Y0049000D01*
X0025000Y0059000D02*
X0031000Y0059000D01*
X0031000Y0069000D02*
X0025000Y0069000D01*
X0025000Y0079000D02*
X0031000Y0079000D01*
X0061000Y0093000D02*
X0061000Y0099000D01*
X0071000Y0099000D02*
X0071000Y0093000D01*
X0098000Y0096000D02*
X0098000Y0090000D01*
X0108000Y0090000D02*
X0108000Y0096000D01*
X0118000Y0096000D02*
X0118000Y0090000D01*
X0128000Y0090000D02*
X0128000Y0096000D01*
D12*
X0201000Y0070000D03*
X0201000Y0030000D03*
D13*
X0048000Y0034000D03*
D14*
X0058000Y0034000D03*
X0068000Y0034000D03*
X0078000Y0034000D03*
X0088000Y0034000D03*
X0098000Y0034000D03*
X0108000Y0034000D03*
X0118000Y0034000D03*
X0128000Y0034000D03*
X0138000Y0034000D03*
X0138000Y0064000D03*
X0128000Y0064000D03*
X0118000Y0064000D03*
X0108000Y0064000D03*
X0098000Y0064000D03*
X0088000Y0064000D03*
X0078000Y0064000D03*
X0068000Y0064000D03*
X0058000Y0064000D03*
X0048000Y0064000D03*
X0043000Y0080500D03*
X0083000Y0080500D03*
M02*
